<svg data-v-fde0c5aa="" xmlns="http://www.w3.org/2000/svg" viewBox="0 0 300 300" class="iconLeft"><!----><defs data-v-fde0c5aa=""><!----></defs><rect data-v-fde0c5aa="" fill="#F3F6EF" x="0" y="0" width="300px" height="300px" class="logo-background-square"></rect><defs data-v-fde0c5aa=""><!----></defs><g data-v-fde0c5aa="" id="db854def-6d71-4e9d-baa3-e79ec10bec1c" fill="#1E2314" transform="matrix(3.57776141166687,0,0,3.57776141166687,100.07686289757872,104.80979954376657)"><path d="M0.87 16.17L0.87 16.17Q1.40 16.30 2.16 16.38L2.16 16.38L2.16 16.38Q2.93 16.46 3.60 16.46L3.60 16.46L3.60 16.46Q4.31 16.46 5.26 16.38L5.26 16.38L5.26 13.41L3.92 13.31L3.92 13.31Q2.60 13.22 1.96 12.99L1.96 12.99L1.96 12.99Q1.32 12.77 1.06 12.29L1.06 12.29L1.06 12.29Q0.81 11.82 0.81 10.86L0.81 10.86L0.81 10.86Q0.81 9.88 1.06 9.31L1.06 9.31L1.06 9.31Q1.30 8.74 1.84 8.48L1.84 8.48L1.84 8.48Q2.38 8.22 3.30 8.22L3.30 8.22L3.30 8.22Q4.70 8.22 6.03 8.46L6.03 8.46L5.89 9.34L5.89 9.34Q4.87 9.14 3.28 9.14L3.28 9.14L3.28 9.14Q2.55 9.14 2.04 9.21L2.04 9.21L2.04 12.21L3.70 12.31L3.70 12.31Q4.82 12.38 5.41 12.62L5.41 12.62L5.41 12.62Q6.01 12.87 6.25 13.39L6.25 13.39L6.25 13.39Q6.50 13.92 6.50 14.88L6.50 14.88L6.50 14.88Q6.50 15.85 6.21 16.39L6.21 16.39L6.21 16.39Q5.92 16.93 5.25 17.16L5.25 17.16L5.25 17.16Q4.58 17.39 3.36 17.39L3.36 17.39L3.36 17.39Q1.97 17.39 0.70 17.08L0.70 17.08L0.87 16.17ZM10.92 17.30L10.92 17.30Q9.67 17.30 9.07 17.02L9.07 17.02L9.07 17.02Q8.47 16.73 8.25 15.98L8.25 15.98L8.25 15.98Q8.02 15.23 8.02 13.68L8.02 13.68L8.02 13.68Q8.02 12.12 8.25 11.38L8.25 11.38L8.25 11.38Q8.47 10.63 9.07 10.34L9.07 10.34L9.07 10.34Q9.67 10.05 10.92 10.05L10.92 10.05L10.92 10.05Q12.18 10.05 12.78 10.33L12.78 10.33L12.78 10.33Q13.38 10.61 13.61 11.36L13.61 11.36L13.61 11.36Q13.83 12.11 13.83 13.68L13.83 13.68L13.83 13.68Q13.83 15.23 13.61 15.98L13.61 15.98L13.61 15.98Q13.38 16.73 12.78 17.02L12.78 17.02L12.78 17.02Q12.17 17.30 10.92 17.30L10.92 17.30ZM9.17 16.35L11.98 16.35L11.98 16.35Q12.40 16.35 12.54 16.28L12.54 16.28L12.54 16.28Q12.68 16.21 12.68 16.00L12.68 16.00L12.68 11.00L9.87 11.00L9.87 11.00Q9.45 11.00 9.31 11.07L9.31 11.07L9.31 11.07Q9.17 11.14 9.17 11.35L9.17 11.35L9.17 16.35ZM17.16 16.34L17.79 16.39L17.72 17.16L17.72 17.16Q17.30 17.30 16.93 17.30L16.93 17.30L16.93 17.30Q16.04 17.30 16.04 16.35L16.04 16.35L16.04 8.08L17.16 7.87L17.16 16.34ZM22.26 10.05L22.26 10.05Q23.20 10.05 23.72 10.23L23.72 10.23L23.72 10.23Q24.25 10.40 24.48 10.81L24.48 10.81L24.48 10.81Q24.71 11.21 24.71 11.91L24.71 11.91L24.71 17.18L24.22 17.18L23.90 16.48L23.90 16.48Q23.41 16.91 22.79 17.11L22.79 17.11L22.79 17.11Q22.18 17.30 21.38 17.30L21.38 17.30L21.38 17.30Q20.24 17.30 19.77 16.84L19.77 16.84L19.77 16.84Q19.29 16.37 19.29 15.26L19.29 15.26L19.29 15.26Q19.29 14.20 19.56 13.76L19.56 13.76L19.56 13.76Q19.82 13.33 20.64 13.19L20.64 13.19L20.64 13.19Q21.45 13.05 23.42 13.05L23.42 13.05L23.59 13.05L23.59 11.14L23.59 11.14Q23.03 10.98 22.04 10.98L22.04 10.98L22.04 10.98Q20.96 10.98 19.75 11.30L19.75 11.30L19.60 10.46L19.60 10.46Q20.05 10.28 20.80 10.16L20.80 10.16L20.80 10.16Q21.56 10.05 22.26 10.05L22.26 10.05ZM22.44 16.39L22.44 16.39Q23.11 16.39 23.35 16.21L23.35 16.21L23.35 16.21Q23.59 16.03 23.59 15.53L23.59 15.53L23.59 13.86L21.48 13.86L21.48 13.86Q20.79 13.86 20.54 14.04L20.54 14.04L20.54 14.04Q20.30 14.22 20.30 14.71L20.30 14.71L20.30 16.39L22.44 16.39ZM27.89 10.18L28.32 11.33L28.32 11.33Q28.99 10.74 29.44 10.42L29.44 10.42L29.44 10.42Q29.88 10.11 30.21 9.97L30.21 9.97L30.35 11.07L30.35 11.07Q29.88 11.23 29.37 11.49L29.37 11.49L29.37 11.49Q28.87 11.76 28.50 12.04L28.50 12.04L28.50 17.18L27.38 17.18L27.38 10.18L27.89 10.18ZM33.08 14.14L33.08 17.18L31.96 17.18L31.96 8.43L35.28 8.43L35.28 8.43Q36.16 8.43 36.64 8.69L36.64 8.69L36.64 8.69Q37.13 8.96 37.34 9.58L37.34 9.58L37.34 9.58Q37.55 10.21 37.55 11.33L37.55 11.33L37.55 11.33Q37.55 12.36 37.34 12.97L37.34 12.97L37.34 12.97Q37.14 13.58 36.69 13.86L36.69 13.86L36.69 13.86Q36.25 14.14 35.49 14.14L35.49 14.14L33.08 14.14ZM33.08 13.22L35.32 13.22L35.32 13.22Q35.92 13.22 36.15 13.09L36.15 13.09L36.15 13.09Q36.37 12.96 36.37 12.63L36.37 12.63L36.37 9.95L36.37 9.95Q36.37 9.62 36.15 9.49L36.15 9.49L36.15 9.49Q35.92 9.37 35.32 9.37L35.32 9.37L33.08 9.37L33.08 13.22ZM38.00 8.43L39.12 8.43L41.29 16.17L41.41 16.17L43.58 8.43L44.70 8.43L42.18 17.18L40.52 17.18L38.00 8.43Z"></path></g><defs data-v-fde0c5aa=""><linearGradient data-v-fde0c5aa="" gradientTransform="rotate(25)" id="7116902d-7142-40b0-8e5b-f6388618087a" x1="0%" y1="0%" x2="100%" y2="0%"><stop data-v-fde0c5aa="" offset="0%" stop-color="#FD9245" stop-opacity="1"></stop><stop data-v-fde0c5aa="" offset="100%" stop-color="#06A96B" stop-opacity="1"></stop></linearGradient></defs><g data-v-fde0c5aa="" id="081bd73e-e333-4026-8152-43bca394e7bf" stroke="none" fill="url(#7116902d-7142-40b0-8e5b-f6388618087a)" transform="matrix(0.5214715600013733,0,0,0.5214715600013733,38.47428830127321,123.91623724673364)"><path d="M77.067 50.035c0 15.113-11.912 27.361-26.611 27.361-14.683 0-26.595-12.248-26.595-27.361 0-15.114 11.912-27.361 26.595-27.361 14.699 0 26.611 12.247 26.611 27.361zM51.542 18.25c.687.088 1.333.16 2.012.16.319 0 .647-.016.99-.064 1.038-.135 1.709-.503 2.028-1.109.934-1.717-.767-5.245-2.132-8.088-.811-1.692-1.513-3.146-1.669-4.184-.176-.423-.279-.926-.391-1.461-.32-1.541-.596-2.467-1.653-2.467h-.159c-.918.071-1.529 1.892-1.853 2.866l-.399 1.182c-.503 1.524-.978 2.97-1.9 4.359-.167.255-.343.494-.519.758-1.146 1.677-2.34 3.409-2.12 5.317.24 2.188 1.665 3.306 3.602 2.803 1.297-.327 2.798-.231 4.163-.072zM45.897 89.828c.176.263.352.511.519.758.923 1.39 1.397 2.835 1.9 4.359l.399 1.182c.323.982.935 2.795 1.853 2.866l.159.009c1.058 0 1.333-.935 1.653-2.468.111-.543.215-1.038.391-1.469.156-1.03.858-2.491 1.669-4.184 1.365-2.835 3.065-6.371 2.132-8.088-.319-.606-.99-.966-2.028-1.11-1.038-.144-1.988-.023-3.002.096-1.361.16-2.866.256-4.163-.071a3.341 3.341 0 0 0-.902-.12c-1.489 0-2.495 1.086-2.699 2.923-.22 1.916.974 3.64 2.119 5.317zM19.693 45.468c-.271-2.1-1.337-2.371-2.235-2.371-1.824 0-4.384 1.31-6.643 2.459-1.645.839-3.062 1.565-4.072 1.725-.415.184-.91.288-1.425.399-1.688.375-2.467.687-2.388 1.9.068.974 1.841 1.597 2.782 1.932l1.143.407c1.429.503 2.89 1.015 4.247 1.965.239.167.487.351.734.534 1.617 1.174 3.29 2.396 5.13 2.18 1.066-.127 1.889-.551 2.363-1.245.463-.655.579-1.525.348-2.507-.375-1.549-.216-2.923-.076-4.264.117-1.046.232-2.044.092-3.114zM81.594 55.353c.479.694 1.294 1.118 2.363 1.245 1.86.216 3.521-.998 5.13-2.18.252-.184.499-.367.739-.534 1.353-.95 2.826-1.462 4.247-1.973l1.142-.399c.942-.335 2.715-.958 2.778-1.932.088-1.214-.702-1.525-2.379-1.9-.519-.111-1.014-.216-1.438-.399-1.002-.159-2.427-.886-4.063-1.725-2.26-1.149-4.818-2.459-6.646-2.459-.898 0-1.961.271-2.231 2.371-.14 1.07-.028 2.068.096 3.114.14 1.341.287 2.715-.08 4.264-.236.981-.113 1.851.342 2.507zM27.666 17.651c-.184 2.036-.371 4.152.738 5.701.702.966 1.572 1.501 2.451 1.509.694 0 1.397-.336 2.016-.958 1.122-1.11 2.363-1.661 3.557-2.196.95-.423 1.837-.822 2.651-1.469.858-.687 1.261-1.357 1.229-2.067-.064-1.965-3.218-4.128-5.761-5.869-1.521-1.037-2.838-1.947-3.469-2.762-.371-.28-.703-.663-1.062-1.062-.603-.702-1.293-1.484-1.972-1.484-.243 0-.491.096-.767.287-.782.543-.423 2.443-.231 3.465l.231 1.229c.3 1.581.591 3.082.463 4.743-.014.303-.043.614-.074.933zM74.808 87.561c-.371-.967-.471-2.604-.583-4.479-.239-3.713-.522-8.335-2.974-8.335-.403 0-.866.111-1.386.327-.954.415-1.729 1.006-2.555 1.637-1.054.798-2.14 1.629-3.637 2.076-.898.263-1.553.767-1.88 1.469-.376.782-.336 1.788.104 2.843.742 1.756 2.603 2.643 4.411 3.505.275.127.547.255.814.391 1.469.727 2.639 1.78 3.769 2.795l.922.814c.774.702 2.172 1.932 2.971 1.524 1.062-.535.926-1.389.391-3.09-.159-.527-.32-1.022-.367-1.477zM73.702 7.424c-.831 0-1.952 1.014-2.623 1.613l-.91.806c-1.126 1.022-2.3 2.076-3.769 2.803-.264.128-.535.264-.814.392-1.805.854-3.673 1.74-4.411 3.497-.443 1.054-.483 2.067-.107 2.85.335.695.981 1.206 1.884 1.47 1.501.438 2.583 1.27 3.633 2.084.822.622 1.601 1.213 2.555 1.62.52.224.986.336 1.386.336 2.459 0 2.742-4.631 2.966-8.344.12-1.876.224-3.505.591-4.471.052-.464.208-.959.371-1.478.527-1.7.667-2.562-.387-3.09a.812.812 0 0 0-.365-.088zM27.326 92.646c.671 0 1.357-.791 1.973-1.478.351-.407.69-.79 1.05-1.069.635-.822 1.956-1.725 3.473-2.771 2.543-1.741 5.696-3.904 5.769-5.86.032-.711-.379-1.39-1.229-2.068-.822-.654-1.709-1.046-2.65-1.469-1.202-.535-2.443-1.086-3.562-2.204-.622-.622-1.321-.941-2.008-.941-.891 0-1.761.534-2.455 1.501-1.117 1.549-.926 3.656-.742 5.7.02.319.056.623.071.935.128 1.66-.176 3.226-.459 4.734l-.231 1.237c-.195 1.014-.555 2.914.228 3.465.273.193.525.288.772.288zM11.478 29.029c.99 1.157 2.005 2.363 2.715 3.872.124.271.247.551.375.838.835 1.86 1.693 3.793 3.394 4.551.551.24 1.078.368 1.577.368 1.257 0 2.167-.791 2.566-2.212.432-1.533 1.237-2.651 2.013-3.729.614-.854 1.193-1.653 1.588-2.643.42-1.055.432-1.86.049-2.468-1.03-1.62-4.779-1.868-7.801-2.06-1.824-.12-3.405-.224-4.359-.606-.447-.057-.93-.224-1.438-.392-.61-.199-1.241-.407-1.772-.407-.566 0-.906.231-1.182.814-.415.887.818 2.339 1.481 3.122l.794.952zM75.438 68.127c-.663.711-.986 1.509-.918 2.308.071.854.583 1.685 1.461 2.355.798.606 1.832.894 3.262.894.738 0 1.497-.071 2.235-.144.299-.032.606-.063.902-.08a8.7 8.7 0 0 1 .771-.031c1.337 0 2.614.263 3.856.511l1.193.239c.579.12 1.293.256 1.952.256 1.042 0 1.289-.367 1.365-.487.663-1.006.132-1.692-1.149-2.89-.399-.359-.775-.711-1.042-1.086-.795-.647-1.673-2.013-2.687-3.577-1.617-2.507-3.833-5.933-5.717-5.933-.663 0-1.286.415-1.916 1.262-.639.847-1.022 1.765-1.43 2.738-.516 1.238-1.059 2.508-2.138 3.665zM13.753 66.395c-1.002 1.564-1.884 2.93-2.674 3.577-.28.375-.651.727-1.038 1.086-1.29 1.197-1.828 1.884-1.158 2.89.08.12.319.487 1.357.487.667 0 1.39-.136 1.964-.256l1.19-.239c1.477-.296 3.006-.615 4.631-.479.295.017.59.048.894.08.738.072 1.493.144 2.231.144 1.441 0 2.472-.287 3.27-.894.87-.671 1.394-1.501 1.461-2.355.072-.799-.247-1.597-.926-2.308-1.07-1.157-1.613-2.436-2.132-3.665-.407-.974-.79-1.892-1.429-2.738-.631-.847-1.258-1.262-1.917-1.262-1.883-.001-4.099 3.433-5.724 5.932zM85.826 33.747c.127-.287.255-.574.391-.846.703-1.518 1.717-2.715 2.703-3.881l.798-.941c.667-.783 1.896-2.235 1.481-3.122-.275-.583-.615-.814-1.182-.814-.531 0-1.162.208-1.776.407-.503.168-.986.335-1.434.383-.95.392-2.535.495-4.355.615-3.021.191-6.771.439-7.796 2.06-.392.607-.375 1.413.044 2.468.396.989.97 1.788 1.593 2.643.774 1.077 1.581 2.195 2.008 3.729.555 1.988 2.208 2.698 4.14 1.844 1.7-.76 2.563-2.685 3.385-4.545z"></path></g><!----></svg>