<svg data-v-fde0c5aa="" xmlns="http://www.w3.org/2000/svg" viewBox="0 0 300 300" class="icon"><!----><defs data-v-fde0c5aa=""><!----></defs><rect data-v-fde0c5aa="" fill="#F3F6EF" x="0" y="0" width="300px" height="300px" class="logo-background-square"></rect><!----><defs data-v-fde0c5aa=""><linearGradient data-v-fde0c5aa="" gradientTransform="rotate(25)" id="17d6b153-f330-4c99-8f93-4c9101a07427" x1="0%" y1="0%" x2="100%" y2="0%"><stop data-v-fde0c5aa="" offset="0%" stop-color="#FD9245" stop-opacity="1"></stop><stop data-v-fde0c5aa="" offset="100%" stop-color="#06A96B" stop-opacity="1"></stop></linearGradient></defs><g data-v-fde0c5aa="" id="860c39ab-4e1e-4fcc-bf36-e33cf9ec91fd" fill="url(#17d6b153-f330-4c99-8f93-4c9101a07427)" stroke="none" transform="matrix(2.2456140518188477,0,0,2.2456140518188477,36.67982456140351,37.675438596491226)"><path d="M77.067 50.035c0 15.113-11.912 27.361-26.611 27.361-14.683 0-26.595-12.248-26.595-27.361 0-15.114 11.912-27.361 26.595-27.361 14.699 0 26.611 12.247 26.611 27.361zM51.542 18.25c.687.088 1.333.16 2.012.16.319 0 .647-.016.99-.064 1.038-.135 1.709-.503 2.028-1.109.934-1.717-.767-5.245-2.132-8.088-.811-1.692-1.513-3.146-1.669-4.184-.176-.423-.279-.926-.391-1.461-.32-1.541-.596-2.467-1.653-2.467h-.159c-.918.071-1.529 1.892-1.853 2.866l-.399 1.182c-.503 1.524-.978 2.97-1.9 4.359-.167.255-.343.494-.519.758-1.146 1.677-2.34 3.409-2.12 5.317.24 2.188 1.665 3.306 3.602 2.803 1.297-.327 2.798-.231 4.163-.072zM45.897 89.828c.176.263.352.511.519.758.923 1.39 1.397 2.835 1.9 4.359l.399 1.182c.323.982.935 2.795 1.853 2.866l.159.009c1.058 0 1.333-.935 1.653-2.468.111-.543.215-1.038.391-1.469.156-1.03.858-2.491 1.669-4.184 1.365-2.835 3.065-6.371 2.132-8.088-.319-.606-.99-.966-2.028-1.11-1.038-.144-1.988-.023-3.002.096-1.361.16-2.866.256-4.163-.071a3.341 3.341 0 0 0-.902-.12c-1.489 0-2.495 1.086-2.699 2.923-.22 1.916.974 3.64 2.119 5.317zM19.693 45.468c-.271-2.1-1.337-2.371-2.235-2.371-1.824 0-4.384 1.31-6.643 2.459-1.645.839-3.062 1.565-4.072 1.725-.415.184-.91.288-1.425.399-1.688.375-2.467.687-2.388 1.9.068.974 1.841 1.597 2.782 1.932l1.143.407c1.429.503 2.89 1.015 4.247 1.965.239.167.487.351.734.534 1.617 1.174 3.29 2.396 5.13 2.18 1.066-.127 1.889-.551 2.363-1.245.463-.655.579-1.525.348-2.507-.375-1.549-.216-2.923-.076-4.264.117-1.046.232-2.044.092-3.114zM81.594 55.353c.479.694 1.294 1.118 2.363 1.245 1.86.216 3.521-.998 5.13-2.18.252-.184.499-.367.739-.534 1.353-.95 2.826-1.462 4.247-1.973l1.142-.399c.942-.335 2.715-.958 2.778-1.932.088-1.214-.702-1.525-2.379-1.9-.519-.111-1.014-.216-1.438-.399-1.002-.159-2.427-.886-4.063-1.725-2.26-1.149-4.818-2.459-6.646-2.459-.898 0-1.961.271-2.231 2.371-.14 1.07-.028 2.068.096 3.114.14 1.341.287 2.715-.08 4.264-.236.981-.113 1.851.342 2.507zM27.666 17.651c-.184 2.036-.371 4.152.738 5.701.702.966 1.572 1.501 2.451 1.509.694 0 1.397-.336 2.016-.958 1.122-1.11 2.363-1.661 3.557-2.196.95-.423 1.837-.822 2.651-1.469.858-.687 1.261-1.357 1.229-2.067-.064-1.965-3.218-4.128-5.761-5.869-1.521-1.037-2.838-1.947-3.469-2.762-.371-.28-.703-.663-1.062-1.062-.603-.702-1.293-1.484-1.972-1.484-.243 0-.491.096-.767.287-.782.543-.423 2.443-.231 3.465l.231 1.229c.3 1.581.591 3.082.463 4.743-.014.303-.043.614-.074.933zM74.808 87.561c-.371-.967-.471-2.604-.583-4.479-.239-3.713-.522-8.335-2.974-8.335-.403 0-.866.111-1.386.327-.954.415-1.729 1.006-2.555 1.637-1.054.798-2.14 1.629-3.637 2.076-.898.263-1.553.767-1.88 1.469-.376.782-.336 1.788.104 2.843.742 1.756 2.603 2.643 4.411 3.505.275.127.547.255.814.391 1.469.727 2.639 1.78 3.769 2.795l.922.814c.774.702 2.172 1.932 2.971 1.524 1.062-.535.926-1.389.391-3.09-.159-.527-.32-1.022-.367-1.477zM73.702 7.424c-.831 0-1.952 1.014-2.623 1.613l-.91.806c-1.126 1.022-2.3 2.076-3.769 2.803-.264.128-.535.264-.814.392-1.805.854-3.673 1.74-4.411 3.497-.443 1.054-.483 2.067-.107 2.85.335.695.981 1.206 1.884 1.47 1.501.438 2.583 1.27 3.633 2.084.822.622 1.601 1.213 2.555 1.62.52.224.986.336 1.386.336 2.459 0 2.742-4.631 2.966-8.344.12-1.876.224-3.505.591-4.471.052-.464.208-.959.371-1.478.527-1.7.667-2.562-.387-3.09a.812.812 0 0 0-.365-.088zM27.326 92.646c.671 0 1.357-.791 1.973-1.478.351-.407.69-.79 1.05-1.069.635-.822 1.956-1.725 3.473-2.771 2.543-1.741 5.696-3.904 5.769-5.86.032-.711-.379-1.39-1.229-2.068-.822-.654-1.709-1.046-2.65-1.469-1.202-.535-2.443-1.086-3.562-2.204-.622-.622-1.321-.941-2.008-.941-.891 0-1.761.534-2.455 1.501-1.117 1.549-.926 3.656-.742 5.7.02.319.056.623.071.935.128 1.66-.176 3.226-.459 4.734l-.231 1.237c-.195 1.014-.555 2.914.228 3.465.273.193.525.288.772.288zM11.478 29.029c.99 1.157 2.005 2.363 2.715 3.872.124.271.247.551.375.838.835 1.86 1.693 3.793 3.394 4.551.551.24 1.078.368 1.577.368 1.257 0 2.167-.791 2.566-2.212.432-1.533 1.237-2.651 2.013-3.729.614-.854 1.193-1.653 1.588-2.643.42-1.055.432-1.86.049-2.468-1.03-1.62-4.779-1.868-7.801-2.06-1.824-.12-3.405-.224-4.359-.606-.447-.057-.93-.224-1.438-.392-.61-.199-1.241-.407-1.772-.407-.566 0-.906.231-1.182.814-.415.887.818 2.339 1.481 3.122l.794.952zM75.438 68.127c-.663.711-.986 1.509-.918 2.308.071.854.583 1.685 1.461 2.355.798.606 1.832.894 3.262.894.738 0 1.497-.071 2.235-.144.299-.032.606-.063.902-.08a8.7 8.7 0 0 1 .771-.031c1.337 0 2.614.263 3.856.511l1.193.239c.579.12 1.293.256 1.952.256 1.042 0 1.289-.367 1.365-.487.663-1.006.132-1.692-1.149-2.89-.399-.359-.775-.711-1.042-1.086-.795-.647-1.673-2.013-2.687-3.577-1.617-2.507-3.833-5.933-5.717-5.933-.663 0-1.286.415-1.916 1.262-.639.847-1.022 1.765-1.43 2.738-.516 1.238-1.059 2.508-2.138 3.665zM13.753 66.395c-1.002 1.564-1.884 2.93-2.674 3.577-.28.375-.651.727-1.038 1.086-1.29 1.197-1.828 1.884-1.158 2.89.08.12.319.487 1.357.487.667 0 1.39-.136 1.964-.256l1.19-.239c1.477-.296 3.006-.615 4.631-.479.295.017.59.048.894.08.738.072 1.493.144 2.231.144 1.441 0 2.472-.287 3.27-.894.87-.671 1.394-1.501 1.461-2.355.072-.799-.247-1.597-.926-2.308-1.07-1.157-1.613-2.436-2.132-3.665-.407-.974-.79-1.892-1.429-2.738-.631-.847-1.258-1.262-1.917-1.262-1.883-.001-4.099 3.433-5.724 5.932zM85.826 33.747c.127-.287.255-.574.391-.846.703-1.518 1.717-2.715 2.703-3.881l.798-.941c.667-.783 1.896-2.235 1.481-3.122-.275-.583-.615-.814-1.182-.814-.531 0-1.162.208-1.776.407-.503.168-.986.335-1.434.383-.95.392-2.535.495-4.355.615-3.021.191-6.771.439-7.796 2.06-.392.607-.375 1.413.044 2.468.396.989.97 1.788 1.593 2.643.774 1.077 1.581 2.195 2.008 3.729.555 1.988 2.208 2.698 4.14 1.844 1.7-.76 2.563-2.685 3.385-4.545z"></path></g><!----></svg>